solid OpenSCAD_Model
  facet normal -1 0 0
    outer loop
      vertex 218 -5 -9
      vertex 218 -8 -9
      vertex 218 -5 0
    endloop
  endfacet
  facet normal -1 0 0
    outer loop
      vertex 218 -5 0
      vertex 218 -4 1.4
      vertex 218 -4 0
    endloop
  endfacet
  facet normal -1 0 0
    outer loop
      vertex 218 -5 0
      vertex 218 -8 0
      vertex 218 -4 1.4
    endloop
  endfacet
  facet normal -1 0 0
    outer loop
      vertex 218 -8 0
      vertex 218 -5 0
      vertex 218 -8 -9
    endloop
  endfacet
  facet normal 0 0 -1
    outer loop
      vertex 127 -4 0
      vertex 218 4 0
      vertex 218 -4 0
    endloop
  endfacet
  facet normal 0 0 -1
    outer loop
      vertex 127 -4 0
      vertex 127 4 0
      vertex 218 4 0
    endloop
  endfacet
  facet normal 0 0 -1
    outer loop
      vertex 125.7 -4 0
      vertex 127 4 0
      vertex 127 -4 0
    endloop
  endfacet
  facet normal 0 0 -1
    outer loop
      vertex 125.7 -4 0
      vertex 125.7 4 0
      vertex 127 4 0
    endloop
  endfacet
  facet normal 0 0 -1
    outer loop
      vertex 124.3 -4 0
      vertex 125.7 4 0
      vertex 125.7 -4 0
    endloop
  endfacet
  facet normal 0 0 -1
    outer loop
      vertex 124.3 -4 0
      vertex 124.3 4 0
      vertex 125.7 4 0
    endloop
  endfacet
  facet normal 0 0 -1
    outer loop
      vertex 123 -4 0
      vertex 124.3 4 0
      vertex 124.3 -4 0
    endloop
  endfacet
  facet normal 0 0 -1
    outer loop
      vertex 123 -4 0
      vertex 123 4 0
      vertex 124.3 4 0
    endloop
  endfacet
  facet normal 0 0 -1
    outer loop
      vertex 93 -4 0
      vertex 123 4 0
      vertex 123 -4 0
    endloop
  endfacet
  facet normal 0 0 -1
    outer loop
      vertex 93 -4 0
      vertex 93 4 0
      vertex 123 4 0
    endloop
  endfacet
  facet normal 0 0 -1
    outer loop
      vertex 91.7 -4 0
      vertex 93 4 0
      vertex 93 -4 0
    endloop
  endfacet
  facet normal 0 0 -1
    outer loop
      vertex 91.7 -4 0
      vertex 91.7 4 0
      vertex 93 4 0
    endloop
  endfacet
  facet normal 0 0 -1
    outer loop
      vertex 90.3 -4 0
      vertex 91.7 4 0
      vertex 91.7 -4 0
    endloop
  endfacet
  facet normal 0 0 -1
    outer loop
      vertex 90.3 -4 0
      vertex 90.3 4 0
      vertex 91.7 4 0
    endloop
  endfacet
  facet normal 0 0 -1
    outer loop
      vertex 89 -4 0
      vertex 90.3 4 0
      vertex 90.3 -4 0
    endloop
  endfacet
  facet normal 0 0 -1
    outer loop
      vertex 89 -4 0
      vertex 89 4 0
      vertex 90.3 4 0
    endloop
  endfacet
  facet normal 0 0 -1
    outer loop
      vertex 3 -4 0
      vertex 89 4 0
      vertex 89 -4 0
    endloop
  endfacet
  facet normal -0 0 -1
    outer loop
      vertex 89 4 0
      vertex 3 -4 0
      vertex 3 4 0
    endloop
  endfacet
  facet normal 0 0 -1
    outer loop
      vertex 218 -4 0
      vertex 223 -5 0
      vertex 218 -5 0
    endloop
  endfacet
  facet normal 0 0 -1
    outer loop
      vertex 223 -5 0
      vertex 218 -4 0
      vertex 223 5 0
    endloop
  endfacet
  facet normal 0 0 -1
    outer loop
      vertex 218 4 0
      vertex 223 5 0
      vertex 218 -4 0
    endloop
  endfacet
  facet normal -0 0 -1
    outer loop
      vertex 223 5 0
      vertex 218 4 0
      vertex 218 5 0
    endloop
  endfacet
  facet normal 1 0 0
    outer loop
      vertex 223 8 0
      vertex 223 5 0
      vertex 223 8 -9
    endloop
  endfacet
  facet normal 1 0 0
    outer loop
      vertex 223 4 1.4
      vertex 223 5 0
      vertex 223 8 0
    endloop
  endfacet
  facet normal 1 -0 0
    outer loop
      vertex 223 -4 1.4
      vertex 223 5 0
      vertex 223 4 1.4
    endloop
  endfacet
  facet normal 1 0 0
    outer loop
      vertex 223 -4 1.4
      vertex 223 -5 0
      vertex 223 5 0
    endloop
  endfacet
  facet normal 1 0 0
    outer loop
      vertex 223 -8 0
      vertex 223 -5 0
      vertex 223 -4 1.4
    endloop
  endfacet
  facet normal 1 -0 0
    outer loop
      vertex 223 -8 0
      vertex 223 -5 -9
      vertex 223 -5 0
    endloop
  endfacet
  facet normal 1 0 0
    outer loop
      vertex 223 -5 -9
      vertex 223 -8 0
      vertex 223 -8 -9
    endloop
  endfacet
  facet normal 1 0 0
    outer loop
      vertex 223 8 -9
      vertex 223 5 0
      vertex 223 5 -9
    endloop
  endfacet
  facet normal 0 1 -0
    outer loop
      vertex 223 -5 -9
      vertex 218 -5 0
      vertex 223 -5 0
    endloop
  endfacet
  facet normal 0 1 0
    outer loop
      vertex 218 -5 0
      vertex 223 -5 -9
      vertex 218 -5 -9
    endloop
  endfacet
  facet normal 0 0 -1
    outer loop
      vertex 218 -8 -9
      vertex 223 -5 -9
      vertex 223 -8 -9
    endloop
  endfacet
  facet normal -0 0 -1
    outer loop
      vertex 223 -5 -9
      vertex 218 -8 -9
      vertex 218 -5 -9
    endloop
  endfacet
  facet normal 0 -1 0
    outer loop
      vertex 218 -8 -9
      vertex 223 -8 0
      vertex 218 -8 0
    endloop
  endfacet
  facet normal 0 -1 -0
    outer loop
      vertex 223 -8 0
      vertex 218 -8 -9
      vertex 223 -8 -9
    endloop
  endfacet
  facet normal 0 -1 0
    outer loop
      vertex 127 -4 0
      vertex 218 -4 1.4
      vertex 127 -4 1.4
    endloop
  endfacet
  facet normal 0 -1 -0
    outer loop
      vertex 218 -4 1.4
      vertex 127 -4 0
      vertex 218 -4 0
    endloop
  endfacet
  facet normal 0 1 -0
    outer loop
      vertex 124.3 -4 -2
      vertex 123 -4 0
      vertex 124.3 -4 0
    endloop
  endfacet
  facet normal 0 1 0
    outer loop
      vertex 123 -4 0
      vertex 124.3 -4 -2
      vertex 123 -4 -2
    endloop
  endfacet
  facet normal 0 -1 0
    outer loop
      vertex 93 -4 0
      vertex 123 -4 1.4
      vertex 93 -4 1.4
    endloop
  endfacet
  facet normal 0 -1 -0
    outer loop
      vertex 123 -4 1.4
      vertex 93 -4 0
      vertex 123 -4 0
    endloop
  endfacet
  facet normal 0 1 -0
    outer loop
      vertex 127 -4 -2
      vertex 125.7 -4 0
      vertex 127 -4 0
    endloop
  endfacet
  facet normal 0 1 0
    outer loop
      vertex 125.7 -4 0
      vertex 127 -4 -2
      vertex 125.7 -4 -2
    endloop
  endfacet
  facet normal 0 -1 0
    outer loop
      vertex 0 -4 1.4
      vertex 3 -4 0
      vertex 89 -4 1.4
    endloop
  endfacet
  facet normal 0 -1 0
    outer loop
      vertex 0 -4 -5
      vertex 3 -4 0
      vertex 0 -4 1.4
    endloop
  endfacet
  facet normal 0 -1 -0
    outer loop
      vertex 3 -4 0
      vertex 0 -4 -5
      vertex 3 -4 -5
    endloop
  endfacet
  facet normal 0 -1 -0
    outer loop
      vertex 89 -4 1.4
      vertex 3 -4 0
      vertex 89 -4 0
    endloop
  endfacet
  facet normal 0 1 -0
    outer loop
      vertex 90.3 -4 -2
      vertex 89 -4 0
      vertex 90.3 -4 0
    endloop
  endfacet
  facet normal 0 1 0
    outer loop
      vertex 89 -4 0
      vertex 90.3 -4 -2
      vertex 89 -4 -2
    endloop
  endfacet
  facet normal 0 1 -0
    outer loop
      vertex 93 -4 -2
      vertex 91.7 -4 0
      vertex 93 -4 0
    endloop
  endfacet
  facet normal 0 1 0
    outer loop
      vertex 91.7 -4 0
      vertex 93 -4 -2
      vertex 91.7 -4 -2
    endloop
  endfacet
  facet normal 0 -0.33035 0.943858
    outer loop
      vertex 218 -4 1.4
      vertex 223 -8 0
      vertex 223 -4 1.4
    endloop
  endfacet
  facet normal 0 -0.33035 0.943858
    outer loop
      vertex 223 -8 0
      vertex 218 -4 1.4
      vertex 218 -8 0
    endloop
  endfacet
  facet normal -1 0 0
    outer loop
      vertex 89 -7.5 -2
      vertex 89 -4 0
      vertex 89 -4 -2
    endloop
  endfacet
  facet normal -1 0 0
    outer loop
      vertex 89 -7.5 1.4
      vertex 89 -4 0
      vertex 89 -7.5 -2
    endloop
  endfacet
  facet normal -1 0 0
    outer loop
      vertex 89 -4 0
      vertex 89 -7.5 1.4
      vertex 89 -4 1.4
    endloop
  endfacet
  facet normal -1 0 0
    outer loop
      vertex 89 4 0
      vertex 89 7.5 -2
      vertex 89 4 -2
    endloop
  endfacet
  facet normal -1 0 0
    outer loop
      vertex 89 7.5 -2
      vertex 89 4 0
      vertex 89 7.5 1.4
    endloop
  endfacet
  facet normal -1 -0 0
    outer loop
      vertex 89 7.5 1.4
      vertex 89 4 0
      vertex 89 4 1.4
    endloop
  endfacet
  facet normal -0 0 1
    outer loop
      vertex 0 4 1.4
      vertex 89 -4 1.4
      vertex 89 4 1.4
    endloop
  endfacet
  facet normal 0 0 1
    outer loop
      vertex 89 -4 1.4
      vertex 0 4 1.4
      vertex 0 -4 1.4
    endloop
  endfacet
  facet normal 0 0 1
    outer loop
      vertex 89 4 1.4
      vertex 93 4 1.4
      vertex 93 7.5 1.4
    endloop
  endfacet
  facet normal 0 0 1
    outer loop
      vertex 93 4 1.4
      vertex 89 4 1.4
      vertex 93 -4 1.4
    endloop
  endfacet
  facet normal 0 0 1
    outer loop
      vertex 89 4 1.4
      vertex 93 7.5 1.4
      vertex 89 7.5 1.4
    endloop
  endfacet
  facet normal 0 0 1
    outer loop
      vertex 89 -4 1.4
      vertex 93 -4 1.4
      vertex 89 4 1.4
    endloop
  endfacet
  facet normal 0 0 1
    outer loop
      vertex 93 -4 1.4
      vertex 89 -4 1.4
      vertex 93 -7.5 1.4
    endloop
  endfacet
  facet normal 0 0 1
    outer loop
      vertex 93 -7.5 1.4
      vertex 89 -4 1.4
      vertex 89 -7.5 1.4
    endloop
  endfacet
  facet normal -0 0 1
    outer loop
      vertex 93 4 1.4
      vertex 123 -4 1.4
      vertex 123 4 1.4
    endloop
  endfacet
  facet normal 0 0 1
    outer loop
      vertex 123 -4 1.4
      vertex 93 4 1.4
      vertex 93 -4 1.4
    endloop
  endfacet
  facet normal 0 0 1
    outer loop
      vertex 123 4 1.4
      vertex 127 4 1.4
      vertex 127 7.5 1.4
    endloop
  endfacet
  facet normal 0 0 1
    outer loop
      vertex 127 4 1.4
      vertex 123 4 1.4
      vertex 127 -4 1.4
    endloop
  endfacet
  facet normal 0 0 1
    outer loop
      vertex 123 4 1.4
      vertex 127 7.5 1.4
      vertex 123 7.5 1.4
    endloop
  endfacet
  facet normal 0 0 1
    outer loop
      vertex 123 -4 1.4
      vertex 127 -4 1.4
      vertex 123 4 1.4
    endloop
  endfacet
  facet normal 0 0 1
    outer loop
      vertex 127 -4 1.4
      vertex 123 -4 1.4
      vertex 127 -7.5 1.4
    endloop
  endfacet
  facet normal 0 0 1
    outer loop
      vertex 127 -7.5 1.4
      vertex 123 -4 1.4
      vertex 123 -7.5 1.4
    endloop
  endfacet
  facet normal -0 0 1
    outer loop
      vertex 218 4 1.4
      vertex 223 -4 1.4
      vertex 223 4 1.4
    endloop
  endfacet
  facet normal 0 0 1
    outer loop
      vertex 218 4 1.4
      vertex 218 -4 1.4
      vertex 223 -4 1.4
    endloop
  endfacet
  facet normal -0 0 1
    outer loop
      vertex 127 4 1.4
      vertex 218 -4 1.4
      vertex 218 4 1.4
    endloop
  endfacet
  facet normal 0 0 1
    outer loop
      vertex 218 -4 1.4
      vertex 127 4 1.4
      vertex 127 -4 1.4
    endloop
  endfacet
  facet normal 1 -0 0
    outer loop
      vertex 93 -7.5 1.4
      vertex 93 -4 0
      vertex 93 -4 1.4
    endloop
  endfacet
  facet normal 1 0 0
    outer loop
      vertex 93 -7.5 -2
      vertex 93 -4 0
      vertex 93 -7.5 1.4
    endloop
  endfacet
  facet normal 1 0 0
    outer loop
      vertex 93 -4 0
      vertex 93 -7.5 -2
      vertex 93 -4 -2
    endloop
  endfacet
  facet normal 1 0 0
    outer loop
      vertex 93 4 0
      vertex 93 7.5 1.4
      vertex 93 4 1.4
    endloop
  endfacet
  facet normal 1 0 0
    outer loop
      vertex 93 7.5 1.4
      vertex 93 4 0
      vertex 93 7.5 -2
    endloop
  endfacet
  facet normal 1 0 0
    outer loop
      vertex 93 7.5 -2
      vertex 93 4 0
      vertex 93 4 -2
    endloop
  endfacet
  facet normal 0 0 -1
    outer loop
      vertex 93 -7.5 -2
      vertex 91.7 -6.25 -2
      vertex 93 -4 -2
    endloop
  endfacet
  facet normal 0 0 -1
    outer loop
      vertex 93 -7.5 -2
      vertex 90.3 -6.25 -2
      vertex 91.7 -6.25 -2
    endloop
  endfacet
  facet normal 0 0 -1
    outer loop
      vertex 89 -7.5 -2
      vertex 90.3 -6.25 -2
      vertex 93 -7.5 -2
    endloop
  endfacet
  facet normal 0 0 -1
    outer loop
      vertex 89 -4 -2
      vertex 90.3 -6.25 -2
      vertex 89 -7.5 -2
    endloop
  endfacet
  facet normal 0 0 -1
    outer loop
      vertex 90.3 -6.25 -2
      vertex 89 -4 -2
      vertex 90.3 -4 -2
    endloop
  endfacet
  facet normal -0 0 -1
    outer loop
      vertex 93 -4 -2
      vertex 91.7 -6.25 -2
      vertex 91.7 -4 -2
    endloop
  endfacet
  facet normal 0 0 -1
    outer loop
      vertex 90.3 4 -2
      vertex 89 4 -2
      vertex 90.3 6.25 -2
    endloop
  endfacet
  facet normal 0 0 -1
    outer loop
      vertex 91.7 6.25 -2
      vertex 93 4 -2
      vertex 91.7 4 -2
    endloop
  endfacet
  facet normal 0 0 -1
    outer loop
      vertex 93 4 -2
      vertex 91.7 6.25 -2
      vertex 93 7.5 -2
    endloop
  endfacet
  facet normal 0 0 -1
    outer loop
      vertex 90.3 6.25 -2
      vertex 93 7.5 -2
      vertex 91.7 6.25 -2
    endloop
  endfacet
  facet normal 0 0 -1
    outer loop
      vertex 90.3 6.25 -2
      vertex 89 7.5 -2
      vertex 93 7.5 -2
    endloop
  endfacet
  facet normal 0 0 -1
    outer loop
      vertex 89 7.5 -2
      vertex 90.3 6.25 -2
      vertex 89 4 -2
    endloop
  endfacet
  facet normal 0 -1 0
    outer loop
      vertex 89 -7.5 -2
      vertex 93 -7.5 1.4
      vertex 89 -7.5 1.4
    endloop
  endfacet
  facet normal 0 -1 -0
    outer loop
      vertex 93 -7.5 1.4
      vertex 89 -7.5 -2
      vertex 93 -7.5 -2
    endloop
  endfacet
  facet normal 0 1 -0
    outer loop
      vertex 93 7.5 -2
      vertex 89 7.5 1.4
      vertex 93 7.5 1.4
    endloop
  endfacet
  facet normal 0 1 0
    outer loop
      vertex 89 7.5 1.4
      vertex 93 7.5 -2
      vertex 89 7.5 -2
    endloop
  endfacet
  facet normal 1 -0 0
    outer loop
      vertex 90.3 4 0
      vertex 90.3 6.25 -2
      vertex 90.3 6.25 0
    endloop
  endfacet
  facet normal 1 0 0
    outer loop
      vertex 90.3 6.25 -2
      vertex 90.3 4 0
      vertex 90.3 4 -2
    endloop
  endfacet
  facet normal 0 0 -1
    outer loop
      vertex 90.3 4 0
      vertex 91.7 6.25 0
      vertex 91.7 4 0
    endloop
  endfacet
  facet normal -0 0 -1
    outer loop
      vertex 91.7 6.25 0
      vertex 90.3 4 0
      vertex 90.3 6.25 0
    endloop
  endfacet
  facet normal -1 0 0
    outer loop
      vertex 91.7 4 -2
      vertex 91.7 6.25 0
      vertex 91.7 6.25 -2
    endloop
  endfacet
  facet normal -1 -0 0
    outer loop
      vertex 91.7 6.25 0
      vertex 91.7 4 -2
      vertex 91.7 4 0
    endloop
  endfacet
  facet normal 0 -1 0
    outer loop
      vertex 90.3 6.25 -2
      vertex 91.7 6.25 0
      vertex 90.3 6.25 0
    endloop
  endfacet
  facet normal 0 -1 -0
    outer loop
      vertex 91.7 6.25 0
      vertex 90.3 6.25 -2
      vertex 91.7 6.25 -2
    endloop
  endfacet
  facet normal 1 -0 0
    outer loop
      vertex 90.3 -6.25 0
      vertex 90.3 -4 -2
      vertex 90.3 -4 0
    endloop
  endfacet
  facet normal 1 0 0
    outer loop
      vertex 90.3 -4 -2
      vertex 90.3 -6.25 0
      vertex 90.3 -6.25 -2
    endloop
  endfacet
  facet normal 0 0 -1
    outer loop
      vertex 90.3 -6.25 0
      vertex 91.7 -4 0
      vertex 91.7 -6.25 0
    endloop
  endfacet
  facet normal -0 0 -1
    outer loop
      vertex 91.7 -4 0
      vertex 90.3 -6.25 0
      vertex 90.3 -4 0
    endloop
  endfacet
  facet normal -1 0 0
    outer loop
      vertex 91.7 -6.25 -2
      vertex 91.7 -4 0
      vertex 91.7 -4 -2
    endloop
  endfacet
  facet normal -1 -0 0
    outer loop
      vertex 91.7 -4 0
      vertex 91.7 -6.25 -2
      vertex 91.7 -6.25 0
    endloop
  endfacet
  facet normal 0 1 -0
    outer loop
      vertex 91.7 -6.25 -2
      vertex 90.3 -6.25 0
      vertex 91.7 -6.25 0
    endloop
  endfacet
  facet normal 0 1 0
    outer loop
      vertex 90.3 -6.25 0
      vertex 91.7 -6.25 -2
      vertex 90.3 -6.25 -2
    endloop
  endfacet
  facet normal 0 -1 0
    outer loop
      vertex 91.7 4 -2
      vertex 93 4 0
      vertex 91.7 4 0
    endloop
  endfacet
  facet normal 0 -1 -0
    outer loop
      vertex 93 4 0
      vertex 91.7 4 -2
      vertex 93 4 -2
    endloop
  endfacet
  facet normal 0 -1 0
    outer loop
      vertex 89 4 -2
      vertex 90.3 4 0
      vertex 89 4 0
    endloop
  endfacet
  facet normal 0 -1 -0
    outer loop
      vertex 90.3 4 0
      vertex 89 4 -2
      vertex 90.3 4 -2
    endloop
  endfacet
  facet normal 0 -1 0
    outer loop
      vertex 125.7 4 -2
      vertex 127 4 0
      vertex 125.7 4 0
    endloop
  endfacet
  facet normal 0 -1 -0
    outer loop
      vertex 127 4 0
      vertex 125.7 4 -2
      vertex 127 4 -2
    endloop
  endfacet
  facet normal 0 1 -0
    outer loop
      vertex 218 4 0
      vertex 127 4 1.4
      vertex 218 4 1.4
    endloop
  endfacet
  facet normal 0 1 0
    outer loop
      vertex 127 4 1.4
      vertex 218 4 0
      vertex 127 4 0
    endloop
  endfacet
  facet normal 0 1 -0
    outer loop
      vertex 123 4 0
      vertex 93 4 1.4
      vertex 123 4 1.4
    endloop
  endfacet
  facet normal 0 1 0
    outer loop
      vertex 93 4 1.4
      vertex 123 4 0
      vertex 93 4 0
    endloop
  endfacet
  facet normal 0 -1 0
    outer loop
      vertex 123 4 -2
      vertex 124.3 4 0
      vertex 123 4 0
    endloop
  endfacet
  facet normal 0 -1 -0
    outer loop
      vertex 124.3 4 0
      vertex 123 4 -2
      vertex 124.3 4 -2
    endloop
  endfacet
  facet normal 0 1 0
    outer loop
      vertex 3 4 0
      vertex 89 4 1.4
      vertex 89 4 0
    endloop
  endfacet
  facet normal 0 1 0
    outer loop
      vertex 89 4 1.4
      vertex 3 4 0
      vertex 0 4 1.4
    endloop
  endfacet
  facet normal 0 1 0
    outer loop
      vertex 0 4 -5
      vertex 3 4 0
      vertex 3 4 -5
    endloop
  endfacet
  facet normal 0 1 0
    outer loop
      vertex 3 4 0
      vertex 0 4 -5
      vertex 0 4 1.4
    endloop
  endfacet
  facet normal -1 0 0
    outer loop
      vertex 123 -7.5 -2
      vertex 123 -4 0
      vertex 123 -4 -2
    endloop
  endfacet
  facet normal -1 0 0
    outer loop
      vertex 123 -7.5 1.4
      vertex 123 -4 0
      vertex 123 -7.5 -2
    endloop
  endfacet
  facet normal -1 0 0
    outer loop
      vertex 123 -4 0
      vertex 123 -7.5 1.4
      vertex 123 -4 1.4
    endloop
  endfacet
  facet normal -1 0 0
    outer loop
      vertex 123 4 0
      vertex 123 7.5 -2
      vertex 123 4 -2
    endloop
  endfacet
  facet normal -1 0 0
    outer loop
      vertex 123 7.5 -2
      vertex 123 4 0
      vertex 123 7.5 1.4
    endloop
  endfacet
  facet normal -1 -0 0
    outer loop
      vertex 123 7.5 1.4
      vertex 123 4 0
      vertex 123 4 1.4
    endloop
  endfacet
  facet normal 1 -0 0
    outer loop
      vertex 127 -7.5 1.4
      vertex 127 -4 0
      vertex 127 -4 1.4
    endloop
  endfacet
  facet normal 1 0 0
    outer loop
      vertex 127 -7.5 -2
      vertex 127 -4 0
      vertex 127 -7.5 1.4
    endloop
  endfacet
  facet normal 1 0 0
    outer loop
      vertex 127 -4 0
      vertex 127 -7.5 -2
      vertex 127 -4 -2
    endloop
  endfacet
  facet normal 1 0 0
    outer loop
      vertex 127 4 0
      vertex 127 7.5 1.4
      vertex 127 4 1.4
    endloop
  endfacet
  facet normal 1 0 0
    outer loop
      vertex 127 7.5 1.4
      vertex 127 4 0
      vertex 127 7.5 -2
    endloop
  endfacet
  facet normal 1 0 0
    outer loop
      vertex 127 7.5 -2
      vertex 127 4 0
      vertex 127 4 -2
    endloop
  endfacet
  facet normal 0 0 -1
    outer loop
      vertex 127 -7.5 -2
      vertex 125.7 -6.25 -2
      vertex 127 -4 -2
    endloop
  endfacet
  facet normal 0 0 -1
    outer loop
      vertex 127 -7.5 -2
      vertex 124.3 -6.25 -2
      vertex 125.7 -6.25 -2
    endloop
  endfacet
  facet normal 0 0 -1
    outer loop
      vertex 123 -7.5 -2
      vertex 124.3 -6.25 -2
      vertex 127 -7.5 -2
    endloop
  endfacet
  facet normal 0 0 -1
    outer loop
      vertex 123 -4 -2
      vertex 124.3 -6.25 -2
      vertex 123 -7.5 -2
    endloop
  endfacet
  facet normal 0 0 -1
    outer loop
      vertex 124.3 -6.25 -2
      vertex 123 -4 -2
      vertex 124.3 -4 -2
    endloop
  endfacet
  facet normal -0 0 -1
    outer loop
      vertex 127 -4 -2
      vertex 125.7 -6.25 -2
      vertex 125.7 -4 -2
    endloop
  endfacet
  facet normal 0 0 -1
    outer loop
      vertex 124.3 4 -2
      vertex 123 4 -2
      vertex 124.3 6.25 -2
    endloop
  endfacet
  facet normal 0 0 -1
    outer loop
      vertex 125.7 6.25 -2
      vertex 127 4 -2
      vertex 125.7 4 -2
    endloop
  endfacet
  facet normal 0 0 -1
    outer loop
      vertex 127 4 -2
      vertex 125.7 6.25 -2
      vertex 127 7.5 -2
    endloop
  endfacet
  facet normal 0 0 -1
    outer loop
      vertex 124.3 6.25 -2
      vertex 127 7.5 -2
      vertex 125.7 6.25 -2
    endloop
  endfacet
  facet normal 0 0 -1
    outer loop
      vertex 124.3 6.25 -2
      vertex 123 7.5 -2
      vertex 127 7.5 -2
    endloop
  endfacet
  facet normal 0 0 -1
    outer loop
      vertex 123 7.5 -2
      vertex 124.3 6.25 -2
      vertex 123 4 -2
    endloop
  endfacet
  facet normal 0 -1 0
    outer loop
      vertex 123 -7.5 -2
      vertex 127 -7.5 1.4
      vertex 123 -7.5 1.4
    endloop
  endfacet
  facet normal 0 -1 -0
    outer loop
      vertex 127 -7.5 1.4
      vertex 123 -7.5 -2
      vertex 127 -7.5 -2
    endloop
  endfacet
  facet normal 0 1 -0
    outer loop
      vertex 127 7.5 -2
      vertex 123 7.5 1.4
      vertex 127 7.5 1.4
    endloop
  endfacet
  facet normal 0 1 0
    outer loop
      vertex 123 7.5 1.4
      vertex 127 7.5 -2
      vertex 123 7.5 -2
    endloop
  endfacet
  facet normal 1 -0 0
    outer loop
      vertex 124.3 4 0
      vertex 124.3 6.25 -2
      vertex 124.3 6.25 0
    endloop
  endfacet
  facet normal 1 0 0
    outer loop
      vertex 124.3 6.25 -2
      vertex 124.3 4 0
      vertex 124.3 4 -2
    endloop
  endfacet
  facet normal 0 0 -1
    outer loop
      vertex 124.3 4 0
      vertex 125.7 6.25 0
      vertex 125.7 4 0
    endloop
  endfacet
  facet normal -0 0 -1
    outer loop
      vertex 125.7 6.25 0
      vertex 124.3 4 0
      vertex 124.3 6.25 0
    endloop
  endfacet
  facet normal -1 0 0
    outer loop
      vertex 125.7 4 -2
      vertex 125.7 6.25 0
      vertex 125.7 6.25 -2
    endloop
  endfacet
  facet normal -1 -0 0
    outer loop
      vertex 125.7 6.25 0
      vertex 125.7 4 -2
      vertex 125.7 4 0
    endloop
  endfacet
  facet normal 0 -1 0
    outer loop
      vertex 124.3 6.25 -2
      vertex 125.7 6.25 0
      vertex 124.3 6.25 0
    endloop
  endfacet
  facet normal 0 -1 -0
    outer loop
      vertex 125.7 6.25 0
      vertex 124.3 6.25 -2
      vertex 125.7 6.25 -2
    endloop
  endfacet
  facet normal 1 -0 0
    outer loop
      vertex 124.3 -6.25 0
      vertex 124.3 -4 -2
      vertex 124.3 -4 0
    endloop
  endfacet
  facet normal 1 0 0
    outer loop
      vertex 124.3 -4 -2
      vertex 124.3 -6.25 0
      vertex 124.3 -6.25 -2
    endloop
  endfacet
  facet normal 0 0 -1
    outer loop
      vertex 124.3 -6.25 0
      vertex 125.7 -4 0
      vertex 125.7 -6.25 0
    endloop
  endfacet
  facet normal -0 0 -1
    outer loop
      vertex 125.7 -4 0
      vertex 124.3 -6.25 0
      vertex 124.3 -4 0
    endloop
  endfacet
  facet normal -1 0 0
    outer loop
      vertex 125.7 -6.25 -2
      vertex 125.7 -4 0
      vertex 125.7 -4 -2
    endloop
  endfacet
  facet normal -1 -0 0
    outer loop
      vertex 125.7 -4 0
      vertex 125.7 -6.25 -2
      vertex 125.7 -6.25 0
    endloop
  endfacet
  facet normal 0 1 -0
    outer loop
      vertex 125.7 -6.25 -2
      vertex 124.3 -6.25 0
      vertex 125.7 -6.25 0
    endloop
  endfacet
  facet normal 0 1 0
    outer loop
      vertex 124.3 -6.25 0
      vertex 125.7 -6.25 -2
      vertex 124.3 -6.25 -2
    endloop
  endfacet
  facet normal -1 0 0
    outer loop
      vertex 218 5 -9
      vertex 218 8 0
      vertex 218 8 -9
    endloop
  endfacet
  facet normal -1 0 0
    outer loop
      vertex 218 5 0
      vertex 218 8 0
      vertex 218 5 -9
    endloop
  endfacet
  facet normal -1 0 0
    outer loop
      vertex 218 4 1.4
      vertex 218 5 0
      vertex 218 4 0
    endloop
  endfacet
  facet normal -1 0 0
    outer loop
      vertex 218 5 0
      vertex 218 4 1.4
      vertex 218 8 0
    endloop
  endfacet
  facet normal 0 1 -0
    outer loop
      vertex 223 8 -9
      vertex 218 8 0
      vertex 223 8 0
    endloop
  endfacet
  facet normal 0 1 0
    outer loop
      vertex 218 8 0
      vertex 223 8 -9
      vertex 218 8 -9
    endloop
  endfacet
  facet normal 0 0 -1
    outer loop
      vertex 218 5 -9
      vertex 223 8 -9
      vertex 223 5 -9
    endloop
  endfacet
  facet normal -0 0 -1
    outer loop
      vertex 223 8 -9
      vertex 218 5 -9
      vertex 218 8 -9
    endloop
  endfacet
  facet normal 0 -1 0
    outer loop
      vertex 218 5 -9
      vertex 223 5 0
      vertex 218 5 0
    endloop
  endfacet
  facet normal 0 -1 -0
    outer loop
      vertex 223 5 0
      vertex 218 5 -9
      vertex 223 5 -9
    endloop
  endfacet
  facet normal -0 0.33035 0.943858
    outer loop
      vertex 218 8 0
      vertex 223 4 1.4
      vertex 223 8 0
    endloop
  endfacet
  facet normal 0 0.33035 0.943858
    outer loop
      vertex 223 4 1.4
      vertex 218 8 0
      vertex 218 4 1.4
    endloop
  endfacet
  facet normal -1 0 0
    outer loop
      vertex 0 -4 -5
      vertex 0 4 1.4
      vertex 0 4 -5
    endloop
  endfacet
  facet normal -1 -0 0
    outer loop
      vertex 0 4 1.4
      vertex 0 -4 -5
      vertex 0 -4 1.4
    endloop
  endfacet
  facet normal 1 -0 0
    outer loop
      vertex 3 -4 0
      vertex 3 4 -5
      vertex 3 4 0
    endloop
  endfacet
  facet normal 1 0 0
    outer loop
      vertex 3 4 -5
      vertex 3 -4 0
      vertex 3 -4 -5
    endloop
  endfacet
  facet normal 0 0 -1
    outer loop
      vertex 0 -4 -5
      vertex 3 4 -5
      vertex 3 -4 -5
    endloop
  endfacet
  facet normal -0 0 -1
    outer loop
      vertex 3 4 -5
      vertex 0 -4 -5
      vertex 0 4 -5
    endloop
  endfacet
endsolid OpenSCAD_Model
